<?xml version="1.0" encoding="utf-8"?>
<!-- Generator: Adobe Illustrator 23.0.2, SVG Export Plug-In . SVG Version: 6.00 Build 0)  -->
<svg version="1.1" id="Layer_1" xmlns="http://www.w3.org/2000/svg" xmlns:xlink="http://www.w3.org/1999/xlink" x="0px" y="0px"
	 viewBox="0 0 220 60" style="enable-background:new 0 0 220 60;" xml:space="preserve">
<style type="text/css">
	.st0{fill:#EE3643;}
	.st1{fill-rule:evenodd;clip-rule:evenodd;fill:#FFFFFF;}
</style>
<rect x="0.34" class="st0" width="220.76" height="60"/>
<path class="st1" d="M173.54,20.81v18.9h-2.7v-18.9h-4.8v-2.1h12.3v2.1H173.54z M162.09,32.85c-0.83,0.47-1.91,0.7-3.25,0.7
	c-0.44,0-0.95-0.03-1.53-0.09s-1.07-0.13-1.47-0.21v6.45h-2.7v-20.7c1.34-0.4,2.94-0.6,4.8-0.6c1.64,0,2.93,0.23,3.88,0.69
	c0.95,0.46,1.64,1.23,2.07,2.31s0.64,2.58,0.64,4.5c0,1.94-0.2,3.47-0.6,4.57C163.54,31.59,162.92,32.38,162.09,32.85z
	 M161.43,22.55c-0.27-0.8-0.68-1.36-1.24-1.69s-1.31-0.5-2.25-0.5h-2.1v11.1h2.1c0.94,0,1.69-0.17,2.25-0.5s0.98-0.89,1.24-1.69
	c0.27-0.8,0.4-1.92,0.4-3.36C161.84,24.47,161.7,23.35,161.43,22.55z M146.39,34.31h-6l-1.35,5.4h-2.7l5.1-21h3.9l5.1,21h-2.7
	C147.74,39.71,146.39,34.31,146.39,34.31z M143.45,21.71h-0.12l-2.49,10.5h5.1L143.45,21.71z M130.49,24.11h-0.15l-4.35,12.9h-2.7
	l-4.35-12.9h-0.15l-0.9,15.6h-2.7l1.2-21h3.3l4.89,14.4h0.12l4.89-14.4h3.3l1.2,21h-2.7C131.39,39.71,130.49,24.11,130.49,24.11z
	 M109.13,39.03c-0.94,0.65-2.12,0.98-3.54,0.98s-2.6-0.33-3.54-0.98c-0.94-0.65-1.66-1.77-2.16-3.36s-0.75-3.74-0.75-6.46
	s0.25-4.88,0.75-6.47s1.22-2.71,2.16-3.36s2.12-0.98,3.54-0.98s2.6,0.33,3.54,0.98s1.66,1.77,2.16,3.36s0.75,3.74,0.75,6.47
	s-0.25,4.87-0.75,6.46S110.07,38.38,109.13,39.03z M105.59,20.21c-2.5,0-3.75,3-3.75,9s1.25,9,3.75,9s3.75-3,3.75-9
	S108.09,20.21,105.59,20.21z M92.84,30.11h-6.3v9.6h-2.7v-21h2.7v9.3h6.3v-9.3h2.7v21h-2.7V30.11z M78.59,39.71l-3.75-9l-3.75,9
	h-2.7l4.5-10.8l-4.05-10.2h2.7l3.3,8.4l3.3-8.4h2.7l-4.05,10.2l4.5,10.8H78.59z M56.54,18.71h10.2v2.1h-7.5v6.9h6.6v2.1h-6.6v7.8
	h7.5v2.1h-10.2V18.71z M49.34,39.71h-2.7v-18.9h-4.8v-2.1h12.3v2.1h-4.8V39.71z"/>
</svg>
