<svg xmlns="http://www.w3.org/2000/svg" data-name="Layer 1" width="220" height="42" viewBox="0 0 220 42">
  <path style="fill:#ee3643" fill="currentColor" d="M0 0h220.76v47H0z"/>
  <g fill="#fff">
    <path d="M52.52 15.18h-4.93V13.4h12v1.78h-4.96v14.4h-2.11zM69.63 22h-6.29v5.84h7v1.75h-9.1V13.4H70v1.75h-6.66v5.11h6.29zM82 29.58L79.89 26c-.84-1.37-1.37-2.25-1.87-3.19-.46.94-.91 1.8-1.75 3.21l-2 3.56h-2.4l4.95-8.19-4.76-8h2.43l2.14 3.79c.59 1.06 1.05 1.87 1.48 2.74h.07c.46-1 .87-1.71 1.47-2.74l2.21-3.79h2.4l-4.92 7.87 5 8.31zM88.45 13.4v6.77h7.82V13.4h2.12v16.18h-2.12V22h-7.82v7.59h-2.09V13.4zM115.48 21.32c0 5.57-3.38 8.52-7.51 8.52s-7.27-3.31-7.27-8.21c0-5.13 3.19-8.49 7.51-8.49s7.27 3.38 7.27 8.18zm-12.55.26c0 3.46 1.87 6.56 5.16 6.56s5.18-3.05 5.18-6.72c0-3.22-1.68-6.58-5.16-6.58s-5.18 3.16-5.18 6.74zM131.3 22.47c-.12-2.25-.26-5-.24-7H131c-.56 1.89-1.23 3.91-2 6.14l-2.86 7.85h-1.58l-2.62-7.7c-.77-2.28-1.42-4.37-1.87-6.29 0 2-.17 4.73-.31 7.15l-.43 6.94h-2l1.13-16.18H121l2.76 7.82c.67 2 1.22 3.77 1.63 5.45h.07c.41-1.63 1-3.41 1.7-5.45l2.89-7.82h2.66l1 16.18h-2zM139.38 24.49l-1.68 5.09h-2.16L141 13.4h2.52l5.52 16.18h-2.23l-1.73-5.09zm5.31-1.63l-1.59-4.66c-.36-1.06-.6-2-.84-2.95-.24 1-.51 1.94-.82 2.93l-1.58 4.68zM151.05 13.59a24.06 24.06 0 014-.31 6.67 6.67 0 014.54 1.34A4.35 4.35 0 01161 18a4.82 4.82 0 01-1.24 3.46 6.75 6.75 0 01-5 1.77 7.22 7.22 0 01-1.68-.14v6.48h-2.09zm2.09 7.8a7 7 0 001.73.17c2.52 0 4.06-1.22 4.06-3.46s-1.52-3.16-3.82-3.16a9.32 9.32 0 00-2 .16zM166.87 15.18H162V13.4h12v1.78h-5v14.4h-2.11z"/>
  </g>
</svg>
