<svg xmlns="http://www.w3.org/2000/svg" viewBox="0 0 220 60">
  <path fill="#ee3643" d="M.34 0H221.1v60H.34z"/>
  <path fill="#fff" fill-rule="evenodd" d="M173.54 20.81v18.9h-2.7v-18.9h-4.8v-2.1h12.3v2.1h-4.8zm-11.45 12.04c-.83.47-1.91.7-3.25.7-.44 0-.95-.03-1.53-.09s-1.07-.13-1.47-.21v6.45h-2.7V19c1.34-.4 2.94-.6 4.8-.6 1.64 0 2.93.23 3.88.69.95.46 1.64 1.23 2.07 2.31s.64 2.58.64 4.5c0 1.94-.2 3.47-.6 4.57-.39 1.12-1.01 1.91-1.84 2.38zm-.66-10.3c-.27-.8-.68-1.36-1.24-1.69s-1.31-.5-2.25-.5h-2.1v11.1h2.1c.94 0 1.69-.17 2.25-.5s.98-.89 1.24-1.69c.27-.8.4-1.92.4-3.36.01-1.44-.13-2.56-.4-3.36zm-15.04 11.76h-6l-1.35 5.4h-2.7l5.1-21h3.9l5.1 21h-2.7l-1.35-5.4zm-2.94-12.6h-.12l-2.49 10.5h5.1l-2.49-10.5zm-12.96 2.4h-.15l-4.35 12.9h-2.7l-4.35-12.9h-.15l-.9 15.6h-2.7l1.2-21h3.3l4.89 14.4h.12l4.89-14.4h3.3l1.2 21h-2.7l-.9-15.6zm-21.36 14.92c-.94.65-2.12.98-3.54.98s-2.6-.33-3.54-.98c-.94-.65-1.66-1.77-2.16-3.36s-.75-3.74-.75-6.46.25-4.88.75-6.47 1.22-2.71 2.16-3.36 2.12-.98 3.54-.98 2.6.33 3.54.98 1.66 1.77 2.16 3.36.75 3.74.75 6.47-.25 4.87-.75 6.46-1.22 2.71-2.16 3.36zm-3.54-18.82c-2.5 0-3.75 3-3.75 9s1.25 9 3.75 9 3.75-3 3.75-9-1.25-9-3.75-9zm-12.75 9.9h-6.3v9.6h-2.7v-21h2.7v9.3h6.3v-9.3h2.7v21h-2.7v-9.6zm-14.25 9.6l-3.75-9-3.75 9h-2.7l4.5-10.8-4.05-10.2h2.7l3.3 8.4 3.3-8.4h2.7l-4.05 10.2 4.5 10.8h-2.7zm-22.05-21h10.2v2.1h-7.5v6.9h6.6v2.1h-6.6v7.8h7.5v2.1h-10.2v-21zm-7.2 21h-2.7v-18.9h-4.8v-2.1h12.3v2.1h-4.8v18.9z" clip-rule="evenodd"/>
</svg>
